<?xml version="1.0" encoding="UTF-8" standalone="no" ?>
<!DOCTYPE svg PUBLIC "-//W3C//DTD SVG 1.1//EN" "http://www.w3.org/Graphics/SVG/1.1/DTD/svg11.dtd">
<svg xmlns="http://www.w3.org/2000/svg" xmlns:xlink="http://www.w3.org/1999/xlink" version="1.1" width="400" height="400" viewBox="0 0 400 400" xml:space="preserve">
<desc>Created with Fabric.js 3.6.2</desc>
<defs>
</defs>
<g transform="matrix(1.33 0 0 1.33 228.47 169.65)" id="_Path_"  >
<path style="stroke: rgb(0,0,0); stroke-width: 4; stroke-dasharray: none; stroke-linecap: butt; stroke-dashoffset: 0; stroke-linejoin: miter; stroke-miterlimit: 10; fill: rgb(172,179,186); fill-rule: nonzero; opacity: 1;"  transform=" translate(-96.35, -52.24)" d="M 81.06 48.54 c -6.11 25.87 -4 48.51 4.8 50.57 S 109.3 66.37 112.78 56 s 4 -48.51 -4.8 -50.57 S 87.16 22.67 81.06 48.54 Z" stroke-linecap="round" />
</g>
<g transform="matrix(1.33 0 0 1.33 171.54 169.66)" id="_Path_2"  >
<path style="stroke: rgb(0,0,0); stroke-width: 4; stroke-dasharray: none; stroke-linecap: butt; stroke-dashoffset: 0; stroke-linejoin: miter; stroke-miterlimit: 10; fill: rgb(172,179,186); fill-rule: nonzero; opacity: 1;"  transform=" translate(-53.66, -52.24)" d="M 68.94 48.54 c 6.11 25.87 4 48.51 -4.8 50.57 S 40.7 66.37 37.22 56 S 33.27 7.5 42 5.44 S 62.84 22.67 68.94 48.54 Z" stroke-linecap="round" />
</g>
<g transform="matrix(1.33 0 0 1.33 241.63 159.26)" id="ART"  >
<path style="stroke: none; stroke-width: 1; stroke-dasharray: none; stroke-linecap: butt; stroke-dashoffset: 0; stroke-linejoin: miter; stroke-miterlimit: 4; fill: rgb(114,118,122); fill-rule: nonzero; opacity: 1;"  transform=" translate(-106.23, -44.45)" d="M 110.88 55.38 A 185.48 185.48 0 0 1 99.77 80.89 C 98 61.93 102.49 33.78 108.45 8 a 6.51 6.51 0 0 1 1 1.41 C 114.48 18.39 113.59 47.3 110.88 55.38 Z" stroke-linecap="round" />
</g>
<g transform="matrix(1.33 0 0 1.33 158.36 159.24)" id="ART"  >
<path style="stroke: none; stroke-width: 1; stroke-dasharray: none; stroke-linecap: butt; stroke-dashoffset: 0; stroke-linejoin: miter; stroke-miterlimit: 4; fill: rgb(114,118,122); fill-rule: nonzero; opacity: 1;"  transform=" translate(-43.77, -44.43)" d="M 50.23 80.89 A 185.48 185.48 0 0 1 39.12 55.38 c -2.71 -8.08 -3.6 -37 1.41 -46 a 6.51 6.51 0 0 1 1 -1.41 C 47.51 33.78 52 61.93 50.23 80.89 Z" stroke-linecap="round" />
</g>
<g transform="matrix(1.33 0 0 1.33 200 229.59)" id="_Path_3"  >
<path style="stroke: rgb(0,0,0); stroke-width: 4; stroke-dasharray: none; stroke-linecap: butt; stroke-dashoffset: 0; stroke-linejoin: miter; stroke-miterlimit: 10; fill: rgb(209,209,209); fill-rule: nonzero; opacity: 1;"  transform=" translate(-75, -97.19)" d="M 75 144.71 c -26.05 0 -54 -20.33 -42.45 -47.51 C 42.93 72.88 48.95 49.68 75 49.68 s 32.07 23.2 42.45 47.51 C 129 124.38 101.05 144.71 75 144.71 Z" stroke-linecap="round" />
</g>
<g transform="matrix(1.33 0 0 1.33 200.03 264.05)" id="ART"  >
<path style="stroke: none; stroke-width: 1; stroke-dasharray: none; stroke-linecap: butt; stroke-dashoffset: 0; stroke-linejoin: miter; stroke-miterlimit: 4; fill: rgb(172,179,186); fill-rule: nonzero; opacity: 1;"  transform=" translate(-75.02, -123.04)" d="M 118 112.37 a 26 26 0 0 1 -4.3 11.7 c -7.36 11.15 -22.91 18.64 -38.68 18.64 s -31.32 -7.49 -38.68 -18.64 a 26 26 0 0 1 -4.3 -11.7 c 11.89 -5.74 26.8 -9 43 -9 S 106.09 106.63 118 112.37 Z" stroke-linecap="round" />
</g>
<g transform="matrix(1.33 0 0 1.33 226.91 220.85)" id="ART"  >
<ellipse style="stroke: rgb(0,0,0); stroke-width: 1; stroke-dasharray: none; stroke-linecap: butt; stroke-dashoffset: 0; stroke-linejoin: miter; stroke-miterlimit: 10; fill: rgb(255,255,255); fill-rule: nonzero; opacity: 1;"  cx="0" cy="0" rx="7.27" ry="7.7" />
</g>
<g transform="matrix(1.33 0 0 1.33 224.24 220.85)" id="ART"  >
<ellipse style="stroke: none; stroke-width: 1; stroke-dasharray: none; stroke-linecap: butt; stroke-dashoffset: 0; stroke-linejoin: miter; stroke-miterlimit: 4; fill: rgb(0,0,0); fill-rule: nonzero; opacity: 1;"  cx="0" cy="0" rx="4.49" ry="4.75" />
</g>
<g transform="matrix(1.33 0 0 1.33 173.09 220.85)" id="ART"  >
<ellipse style="stroke: rgb(0,0,0); stroke-width: 1; stroke-dasharray: none; stroke-linecap: butt; stroke-dashoffset: 0; stroke-linejoin: miter; stroke-miterlimit: 10; fill: rgb(255,255,255); fill-rule: nonzero; opacity: 1;"  cx="0" cy="0" rx="7.27" ry="7.7" />
</g>
<g transform="matrix(1.33 0 0 1.33 175.76 220.85)" id="ART"  >
<ellipse style="stroke: none; stroke-width: 1; stroke-dasharray: none; stroke-linecap: butt; stroke-dashoffset: 0; stroke-linejoin: miter; stroke-miterlimit: 4; fill: rgb(0,0,0); fill-rule: nonzero; opacity: 1;"  cx="0" cy="0" rx="4.49" ry="4.75" />
</g>
<g transform="matrix(1.33 0 0 1.33 195.74 267.83)" id="ART"  >
<path style="stroke: rgb(0,0,0); stroke-width: 1; stroke-dasharray: none; stroke-linecap: butt; stroke-dashoffset: 0; stroke-linejoin: miter; stroke-miterlimit: 10; fill: rgb(255,255,255); fill-rule: nonzero; opacity: 1;"  transform=" translate(-71.81, -125.87)" d="M 75 121.87 v 5 a 3 3 0 0 1 -3 3 h -0.39 a 3 3 0 0 1 -3 -3 V 124" stroke-linecap="round" />
</g>
<g transform="matrix(1.33 0 0 1.33 204.26 267.16)" id="ART"  >
<path style="stroke: rgb(0,0,0); stroke-width: 1; stroke-dasharray: none; stroke-linecap: butt; stroke-dashoffset: 0; stroke-linejoin: miter; stroke-miterlimit: 10; fill: rgb(255,255,255); fill-rule: nonzero; opacity: 1;"  transform=" translate(-78.19, -125.37)" d="M 75 120.87 v 6 a 3 3 0 0 0 3 3 h 0.39 a 3 3 0 0 0 3 -3 V 124" stroke-linecap="round" />
</g>
<g transform="matrix(1.33 0 0 1.33 190.71 263.11)" id="ART"  >
<path style="stroke: rgb(0,0,0); stroke-width: 1; stroke-dasharray: none; stroke-linecap: round; stroke-dashoffset: 0; stroke-linejoin: round; stroke-miterlimit: 4; fill: none; fill-rule: nonzero; opacity: 1;"  transform=" translate(-68.03, -122.33)" d="M 61.07 122.89 C 64.75 126 75 123 75 120.45" stroke-linecap="round" />
</g>
<g transform="matrix(1.33 0 0 1.33 209.29 263.11)" id="ART"  >
<path style="stroke: rgb(0,0,0); stroke-width: 1; stroke-dasharray: none; stroke-linecap: round; stroke-dashoffset: 0; stroke-linejoin: round; stroke-miterlimit: 4; fill: none; fill-rule: nonzero; opacity: 1;"  transform=" translate(-81.97, -122.33)" d="M 88.93 122.89 C 85.25 126 75 123 75 120.45" stroke-linecap="round" />
</g>
<g transform="matrix(1.33 0 0 1.33 199.93 248.15)" id="ART"  >
<path style="stroke: rgb(0,0,0); stroke-width: 2; stroke-dasharray: none; stroke-linecap: butt; stroke-dashoffset: 0; stroke-linejoin: miter; stroke-miterlimit: 10; fill: rgb(107,110,112); fill-rule: nonzero; opacity: 1;"  transform=" translate(-74.95, -111.11)" d="M 83 115 c -0.05 4.44 -6.4 5.43 -8.11 5.41 s -8 -1.15 -8 -5.6 s 3.75 -13.09 8.2 -13 S 83.06 110.59 83 115 Z" stroke-linecap="round" />
</g>
</svg>