<?xml version="1.0" encoding="UTF-8" standalone="no" ?>
<!DOCTYPE svg PUBLIC "-//W3C//DTD SVG 1.1//EN" "http://www.w3.org/Graphics/SVG/1.1/DTD/svg11.dtd">
<svg xmlns="http://www.w3.org/2000/svg" xmlns:xlink="http://www.w3.org/1999/xlink" version="1.1" width="400" height="400" viewBox="0 0 400 400" xml:space="preserve">
<desc>Created with Fabric.js 3.6.2</desc>
<defs>
</defs>
<g transform="matrix(4.17 0 0 4.17 200 147.92)" id="surface1"  >
<path style="stroke: none; stroke-width: 1; stroke-dasharray: none; stroke-linecap: butt; stroke-dashoffset: 0; stroke-linejoin: miter; stroke-miterlimit: 4; fill: rgb(93,64,55); fill-rule: nonzero; opacity: 1;"  transform=" translate(-24, -11.5)" d="M 27 13 c 0 1.7 -1.3 3 -3 3 s -3 -1.3 -3 -3 l -2 -2 c 0 -1.7 3.3 -4 5 -4 s 5 2.3 5 4 L 27 13 z" stroke-linecap="round" />
</g>
<g transform="matrix(4.17 0 0 4.17 200 158.33)" id="surface1"  >
<path style="stroke: none; stroke-width: 1; stroke-dasharray: none; stroke-linecap: butt; stroke-dashoffset: 0; stroke-linejoin: miter; stroke-miterlimit: 4; fill: rgb(93,64,55); fill-rule: nonzero; opacity: 1;"  transform=" translate(-24, -14)" d="M 17 15 l 5 2 h 4 l 5 -2 c 0 -3 -2 -4 -2 -4 H 19 C 19 11 17 12 17 15 z" stroke-linecap="round" />
</g>
<g transform="matrix(4.17 0 0 4.17 256.14 199.97)" id="surface1"  >
<path style="stroke: none; stroke-width: 1; stroke-dasharray: none; stroke-linecap: butt; stroke-dashoffset: 0; stroke-linejoin: miter; stroke-miterlimit: 4; fill: rgb(93,64,55); fill-rule: nonzero; opacity: 1;"  transform=" translate(-37.47, -23.99)" d="M 41 29 c -0.1 0 -0.2 0 -0.3 -0.1 l -6.6 -2.2 L 33 20.2 c -0.1 -0.5 0.3 -1.1 0.8 -1.2 c 0.5 -0.1 1.1 0.3 1.2 0.8 l 0.9 5.4 l 5.4 1.8 c 0.5 0.2 0.8 0.7 0.6 1.3 C 41.8 28.7 41.4 29 41 29 z" stroke-linecap="round" />
</g>
<g transform="matrix(4.17 0 0 4.17 258.5 254.04)" id="surface1"  >
<path style="stroke: none; stroke-width: 1; stroke-dasharray: none; stroke-linecap: butt; stroke-dashoffset: 0; stroke-linejoin: miter; stroke-miterlimit: 4; fill: rgb(93,64,55); fill-rule: nonzero; opacity: 1;"  transform=" translate(-38.04, -36.97)" d="M 41 42 c -0.2 0 -0.3 0 -0.4 -0.1 l -4.4 -2.2 l -2.1 -6.4 c -0.2 -0.5 0.1 -1.1 0.6 -1.3 c 0.5 -0.2 1.1 0.1 1.3 0.6 l 1.9 5.6 l 3.6 1.8 c 0.5 0.2 0.7 0.8 0.4 1.3 C 41.7 41.8 41.4 42 41 42 z" stroke-linecap="round" />
</g>
<g transform="matrix(4.17 0 0 4.17 143.86 199.97)" id="surface1"  >
<path style="stroke: none; stroke-width: 1; stroke-dasharray: none; stroke-linecap: butt; stroke-dashoffset: 0; stroke-linejoin: miter; stroke-miterlimit: 4; fill: rgb(93,64,55); fill-rule: nonzero; opacity: 1;"  transform=" translate(-10.53, -23.99)" d="M 7 29 c -0.4 0 -0.8 -0.3 -0.9 -0.7 c -0.2 -0.5 0.1 -1.1 0.6 -1.3 l 5.4 -1.8 l 0.9 -5.4 c 0.1 -0.5 0.6 -0.9 1.2 -0.8 c 0.5 0.1 0.9 0.6 0.8 1.2 l -1.1 6.6 L 7.3 29 C 7.2 29 7.1 29 7 29 z" stroke-linecap="round" />
</g>
<g transform="matrix(4.17 0 0 4.17 141.63 254.24)" id="surface1"  >
<path style="stroke: none; stroke-width: 1; stroke-dasharray: none; stroke-linecap: butt; stroke-dashoffset: 0; stroke-linejoin: miter; stroke-miterlimit: 4; fill: rgb(93,64,55); fill-rule: nonzero; opacity: 1;"  transform=" translate(-9.99, -37.02)" d="M 7 42 c -0.4 0 -0.7 -0.2 -0.9 -0.6 c -0.2 -0.5 0 -1.1 0.4 -1.3 l 3.6 -1.8 l 1.9 -5.6 c 0.2 -0.5 0.7 -0.8 1.3 -0.6 c 0.5 0.2 0.8 0.7 0.6 1.3 l -2.1 6.4 l -4.4 2.2 C 7.3 42 7.2 42 7 42 z" stroke-linecap="round" />
</g>
<g transform="matrix(4.17 0 0 4.17 233.27 164.65)" id="surface1"  >
<path style="stroke: none; stroke-width: 1; stroke-dasharray: none; stroke-linecap: butt; stroke-dashoffset: 0; stroke-linejoin: miter; stroke-miterlimit: 4; fill: rgb(93,64,55); fill-rule: nonzero; opacity: 1;"  transform=" translate(-31.98, -15.52)" d="M 37.6 19 H 24 c -0.6 0 -1 -0.4 -1 -1 s 0.4 -1 1 -1 h 12.4 l 2.7 -4.5 c 0.3 -0.5 0.9 -0.6 1.4 -0.3 c 0.5 0.3 0.6 0.9 0.3 1.4 L 37.6 19 z" stroke-linecap="round" />
</g>
<g transform="matrix(4.17 0 0 4.17 166.67 164.59)" id="surface1"  >
<path style="stroke: none; stroke-width: 1; stroke-dasharray: none; stroke-linecap: butt; stroke-dashoffset: 0; stroke-linejoin: miter; stroke-miterlimit: 4; fill: rgb(93,64,55); fill-rule: nonzero; opacity: 1;"  transform=" translate(-16, -15.5)" d="M 24 19 H 10.4 l -3.3 -5.5 C 6.9 13 7 12.4 7.5 12.1 C 8 11.9 8.6 12 8.9 12.5 l 2.7 4.5 H 24 c 0.6 0 1 0.4 1 1 S 24.6 19 24 19 z" stroke-linecap="round" />
</g>
<g transform="matrix(4.17 0 0 4.17 183.33 133.33)" id="surface1"  >
<path style="stroke: none; stroke-width: 1; stroke-dasharray: none; stroke-linecap: butt; stroke-dashoffset: 0; stroke-linejoin: miter; stroke-miterlimit: 4; fill: rgb(93,64,55); fill-rule: nonzero; opacity: 1;"  transform=" translate(-20, -8)" d="M 23 10 c -0.3 0 -0.5 -0.1 -0.7 -0.3 C 22.2 9.6 20.5 8 17 8 c -0.6 0 -1 -0.4 -1 -1 s 0.4 -1 1 -1 c 4.4 0 6.6 2.2 6.7 2.3 c 0.4 0.4 0.4 1 0 1.4 C 23.5 9.9 23.3 10 23 10 z" stroke-linecap="round" />
</g>
<g transform="matrix(4.17 0 0 4.17 216.67 133.33)" id="surface1"  >
<path style="stroke: none; stroke-width: 1; stroke-dasharray: none; stroke-linecap: butt; stroke-dashoffset: 0; stroke-linejoin: miter; stroke-miterlimit: 4; fill: rgb(93,64,55); fill-rule: nonzero; opacity: 1;"  transform=" translate(-28, -8)" d="M 25 10 c -0.3 0 -0.5 -0.1 -0.7 -0.3 c -0.4 -0.4 -0.4 -1 0 -1.4 C 24.4 8.2 26.6 6 31 6 c 0.6 0 1 0.4 1 1 s -0.4 1 -1 1 c -3.5 0 -5.2 1.6 -5.3 1.7 C 25.5 9.9 25.3 10 25 10 z" stroke-linecap="round" />
</g>
<g transform="matrix(4.17 0 0 4.17 200 229.17)" id="surface1"  >
<path style="stroke: none; stroke-width: 1; stroke-dasharray: none; stroke-linecap: butt; stroke-dashoffset: 0; stroke-linejoin: miter; stroke-miterlimit: 4; fill: rgb(183,28,28); fill-rule: nonzero; opacity: 1;"  transform=" translate(-24, -31)" d="M 23 20 h 2 v 22 h -2 V 20 z" stroke-linecap="round" />
</g>
<g transform="matrix(4.17 0 0 4.17 200 222.92)" id="surface1"  >
<path style="stroke: none; stroke-width: 1; stroke-dasharray: none; stroke-linecap: butt; stroke-dashoffset: 0; stroke-linejoin: miter; stroke-miterlimit: 4; fill: rgb(255,61,0); fill-rule: nonzero; opacity: 1;"  transform=" translate(-24, -29.5)" d="M 15.2 17 c -2.4 2.4 -4.2 5.8 -4.2 10 c 0 8.8 7.7 15 12 15 l 1 -23 l 1 23 c 4.3 0 12 -6.2 12 -15 c 0 -4.2 -1.8 -7.6 -4.2 -10 H 15.2 z" stroke-linecap="round" />
</g>
<g transform="matrix(4.17 0 0 4.17 200 181.25)" id="surface1"  >
<path style="stroke: none; stroke-width: 1; stroke-dasharray: none; stroke-linecap: butt; stroke-dashoffset: 0; stroke-linejoin: miter; stroke-miterlimit: 4; fill: rgb(62,39,35); fill-rule: nonzero; opacity: 1;"  transform=" translate(-24, -19.5)" d="M 24 22 c 2.8 0 5 -2.2 5 -5 H 19 C 19 19.8 21.2 22 24 22 z" stroke-linecap="round" />
</g>
<g transform="matrix(4.17 0 0 4.17 222.92 218.75)" id="surface1"  >
<path style="stroke: none; stroke-width: 1; stroke-dasharray: none; stroke-linecap: butt; stroke-dashoffset: 0; stroke-linejoin: miter; stroke-miterlimit: 4; fill: rgb(62,39,35); fill-rule: nonzero; opacity: 1;"  transform=" translate(-29.5, -28.5)" d="M 32 28.5 c 0 1.4 -1.1 2.5 -2.5 2.5 S 27 29.9 27 28.5 s 1.1 -2.5 2.5 -2.5 S 32 27.1 32 28.5 z" stroke-linecap="round" />
</g>
<g transform="matrix(4.17 0 0 4.17 177.08 218.75)" id="surface1"  >
<path style="stroke: none; stroke-width: 1; stroke-dasharray: none; stroke-linecap: butt; stroke-dashoffset: 0; stroke-linejoin: miter; stroke-miterlimit: 4; fill: rgb(62,39,35); fill-rule: nonzero; opacity: 1;"  transform=" translate(-18.5, -28.5)" d="M 21 28.5 c 0 1.4 -1.1 2.5 -2.5 2.5 S 16 29.9 16 28.5 s 1.1 -2.5 2.5 -2.5 S 21 27.1 21 28.5 z" stroke-linecap="round" />
</g>
<g transform="matrix(4.17 0 0 4.17 161.04 196.25)" id="surface1"  >
<path style="stroke: none; stroke-width: 1; stroke-dasharray: none; stroke-linecap: butt; stroke-dashoffset: 0; stroke-linejoin: miter; stroke-miterlimit: 4; fill: rgb(62,39,35); fill-rule: nonzero; opacity: 1;"  transform=" translate(-14.65, -23.1)" d="M 13.3 22.4 c -0.5 1 -0.4 2.1 0.4 2.5 c 0.7 0.4 1.7 -0.1 2.3 -1.1 c 0.5 -1 0.4 -2.1 -0.4 -2.5 C 14.8 20.9 13.8 21.4 13.3 22.4 z" stroke-linecap="round" />
</g>
<g transform="matrix(4.17 0 0 4.17 239.88 196.25)" id="surface1"  >
<path style="stroke: none; stroke-width: 1; stroke-dasharray: none; stroke-linecap: butt; stroke-dashoffset: 0; stroke-linejoin: miter; stroke-miterlimit: 4; fill: rgb(62,39,35); fill-rule: nonzero; opacity: 1;"  transform=" translate(-33.57, -23.1)" d="M 34.9 22.4 c -0.5 -1 -1.5 -1.4 -2.3 -1.1 s -0.9 1.5 -0.4 2.5 c 0.5 1 1.5 1.4 2.3 1.1 C 35.3 24.5 35.5 23.4 34.9 22.4 z" stroke-linecap="round" />
</g>
<g transform="matrix(4.17 0 0 4.17 228.45 250.63)" id="surface1"  >
<path style="stroke: none; stroke-width: 1; stroke-dasharray: none; stroke-linecap: butt; stroke-dashoffset: 0; stroke-linejoin: miter; stroke-miterlimit: 4; fill: rgb(62,39,35); fill-rule: nonzero; opacity: 1;"  transform=" translate(-30.83, -36.15)" d="M 29.4 37.6 c 0.6 0.6 1.7 0.4 2.5 -0.4 s 0.9 -1.9 0.4 -2.5 s -1.7 -0.4 -2.5 0.4 S 28.8 37.1 29.4 37.6 z" stroke-linecap="round" />
</g>
<g transform="matrix(4.17 0 0 4.17 173.96 250.72)" id="surface1"  >
<path style="stroke: none; stroke-width: 1; stroke-dasharray: none; stroke-linecap: butt; stroke-dashoffset: 0; stroke-linejoin: miter; stroke-miterlimit: 4; fill: rgb(62,39,35); fill-rule: nonzero; opacity: 1;"  transform=" translate(-17.75, -36.17)" d="M 19.2 37.6 c 0.6 -0.6 0.4 -1.7 -0.4 -2.5 s -1.9 -0.9 -2.5 -0.4 s -0.4 1.7 0.4 2.5 S 18.6 38.2 19.2 37.6 z" stroke-linecap="round" />
</g>
<g transform="matrix(4.17 0 0 4.17 220.63 152.08)" id="surface1"  >
<path style="stroke: none; stroke-width: 1; stroke-dasharray: none; stroke-linecap: butt; stroke-dashoffset: 0; stroke-linejoin: miter; stroke-miterlimit: 4; fill: rgb(161,136,127); fill-rule: nonzero; opacity: 1;"  transform=" translate(-28.95, -12.5)" d="M 29 11 h -2 v 2 c 0 0.6 0.4 1 1 1 h 2.9 C 30.5 11.8 29 11 29 11 z" stroke-linecap="round" />
</g>
<g transform="matrix(4.17 0 0 4.17 179.38 152.08)" id="surface1"  >
<path style="stroke: none; stroke-width: 1; stroke-dasharray: none; stroke-linecap: butt; stroke-dashoffset: 0; stroke-linejoin: miter; stroke-miterlimit: 4; fill: rgb(161,136,127); fill-rule: nonzero; opacity: 1;"  transform=" translate(-19.05, -12.5)" d="M 19 11 h 2 v 2 c 0 0.6 -0.4 1 -1 1 h -2.9 C 17.5 11.8 19 11 19 11 z" stroke-linecap="round" />
</g>
</svg>