<?xml version="1.0" encoding="UTF-8" standalone="no" ?>
<!DOCTYPE svg PUBLIC "-//W3C//DTD SVG 1.1//EN" "http://www.w3.org/Graphics/SVG/1.1/DTD/svg11.dtd">
<svg xmlns="http://www.w3.org/2000/svg" xmlns:xlink="http://www.w3.org/1999/xlink" version="1.1" width="400" height="400" viewBox="0 0 400 400" xml:space="preserve">
<desc>Created with Fabric.js 3.6.2</desc>
<defs>
</defs>
<g transform="matrix(1.33 0 0 1.33 265.33 165.65)" id="ART"  >
<ellipse style="stroke: rgb(0,0,0); stroke-width: 4; stroke-dasharray: none; stroke-linecap: butt; stroke-dashoffset: 0; stroke-linejoin: miter; stroke-miterlimit: 10; fill: rgb(204,86,33); fill-rule: nonzero; opacity: 1;"  cx="0" cy="0" rx="19.83" ry="23.09" />
</g>
<g transform="matrix(1.33 0 0 1.33 134.67 165.65)" id="ART"  >
<ellipse style="stroke: rgb(0,0,0); stroke-width: 4; stroke-dasharray: none; stroke-linecap: butt; stroke-dashoffset: 0; stroke-linejoin: miter; stroke-miterlimit: 10; fill: rgb(204,86,33); fill-rule: nonzero; opacity: 1;"  cx="0" cy="0" rx="19.83" ry="23.09" />
</g>
<g transform="matrix(1.33 0 0 1.33 260.44 167.39)" id="ART"  >
<ellipse style="stroke: none; stroke-width: 1; stroke-dasharray: none; stroke-linecap: butt; stroke-dashoffset: 0; stroke-linejoin: miter; stroke-miterlimit: 4; fill: rgb(165,54,32); fill-rule: nonzero; opacity: 1;"  cx="0" cy="0" rx="13.83" ry="16.83" />
</g>
<g transform="matrix(1.33 0 0 1.33 139.56 167.39)" id="ART"  >
<ellipse style="stroke: none; stroke-width: 1; stroke-dasharray: none; stroke-linecap: butt; stroke-dashoffset: 0; stroke-linejoin: miter; stroke-miterlimit: 4; fill: rgb(165,54,32); fill-rule: nonzero; opacity: 1;"  cx="0" cy="0" rx="13.83" ry="16.83" />
</g>
<g transform="matrix(1.33 0 0 1.33 200.01 200)" id="_Path_"  >
<path style="stroke: rgb(0,0,0); stroke-width: 4; stroke-dasharray: none; stroke-linecap: butt; stroke-dashoffset: 0; stroke-linejoin: miter; stroke-miterlimit: 10; fill: rgb(204,86,33); fill-rule: nonzero; opacity: 1;"  transform=" translate(-75.01, -75)" d="M 100.93 93.23 c 1.82 3.38 10.59 34.7 -25.93 34.7 S 47.24 96.61 49.07 93.23 c -8.15 -6.34 -17.35 -17.67 -17.35 -30.4 c 0 -21.44 15.47 -39 37.68 -40.76 c 1.18 -0.09 4.39 3.47 5.61 3.47 s 4.42 -3.57 5.61 -3.47 c 22.21 1.73 37.68 19.32 37.68 40.76 C 118.29 75.57 109.08 86.9 100.93 93.23 Z" stroke-linecap="round" />
</g>
<g transform="matrix(1.33 0 0 1.33 199.93 210.49)" id="ART"  >
<path style="stroke: none; stroke-width: 1; stroke-dasharray: none; stroke-linecap: butt; stroke-dashoffset: 0; stroke-linejoin: miter; stroke-miterlimit: 4; fill: rgb(229,193,161); fill-rule: nonzero; opacity: 1;"  transform=" translate(-74.95, -82.87)" d="M 99.51 95 c 1.1 3.14 3.55 13.4 -1.09 21.17 c -3.86 6.47 -11.74 9.75 -23.42 9.75 s -19.56 -3.28 -23.42 -9.75 c -4.64 -7.77 -2.19 -18 -1.09 -21.17 a 33.19 33.19 0 0 1 6.69 -7.58 C 50.46 83.61 40.56 73.19 40.56 57.2 c 0 -9.6 8.78 -17.39 18.39 -17.39 c 8.43 0 13.69 5.07 16 5.07 s 7.61 -5.07 16 -5.07 c 9.6 0 18.39 7.79 18.39 17.39 c 0 16 -9.91 26.42 -16.62 30.24 A 33.16 33.16 0 0 1 99.51 95 Z" stroke-linecap="round" />
</g>
<g transform="matrix(1.33 0 0 1.33 176.17 175.6)" id="ART"  >
<circle style="stroke: rgb(0,0,0); stroke-width: 1; stroke-dasharray: none; stroke-linecap: round; stroke-dashoffset: 0; stroke-linejoin: miter; stroke-miterlimit: 10; fill: rgb(242,207,201); fill-rule: nonzero; opacity: 1;"  cx="0" cy="0" r="7.11" />
</g>
<g transform="matrix(1.33 0 0 1.33 177.51 176.93)" id="ART"  >
<circle style="stroke: none; stroke-width: 1; stroke-dasharray: none; stroke-linecap: butt; stroke-dashoffset: 0; stroke-linejoin: miter; stroke-miterlimit: 4; fill: rgb(0,0,0); fill-rule: nonzero; opacity: 1;"  cx="0" cy="0" r="3.25" />
</g>
<g transform="matrix(1.33 0 0 1.33 223.84 175.6)" id="ART"  >
<circle style="stroke: rgb(0,0,0); stroke-width: 1; stroke-dasharray: none; stroke-linecap: round; stroke-dashoffset: 0; stroke-linejoin: miter; stroke-miterlimit: 10; fill: rgb(242,207,201); fill-rule: nonzero; opacity: 1;"  cx="0" cy="0" r="7.11" />
</g>
<g transform="matrix(1.33 0 0 1.33 222.49 176.93)" id="ART"  >
<circle style="stroke: none; stroke-width: 1; stroke-dasharray: none; stroke-linecap: butt; stroke-dashoffset: 0; stroke-linejoin: miter; stroke-miterlimit: 4; fill: rgb(0,0,0); fill-rule: nonzero; opacity: 1;"  cx="0" cy="0" r="3.25" />
</g>
<g transform="matrix(1.33 0 0 1.33 194.25 210.88)" id="ART"  >
<circle style="stroke: none; stroke-width: 1; stroke-dasharray: none; stroke-linecap: butt; stroke-dashoffset: 0; stroke-linejoin: miter; stroke-miterlimit: 4; fill: rgb(0,0,0); fill-rule: nonzero; opacity: 1;"  cx="0" cy="0" r="2.5" />
</g>
<g transform="matrix(1.33 0 0 1.33 205.75 210.88)" id="ART"  >
<circle style="stroke: none; stroke-width: 1; stroke-dasharray: none; stroke-linecap: butt; stroke-dashoffset: 0; stroke-linejoin: miter; stroke-miterlimit: 4; fill: rgb(0,0,0); fill-rule: nonzero; opacity: 1;"  cx="0" cy="0" r="2.5" />
</g>
<g transform="matrix(1.33 0 0 1.33 200.51 237.68)" id="ART"  >
<path style="stroke: rgb(0,0,0); stroke-width: 3; stroke-dasharray: none; stroke-linecap: round; stroke-dashoffset: 0; stroke-linejoin: miter; stroke-miterlimit: 10; fill: none; fill-rule: nonzero; opacity: 1;"  transform=" translate(-75.38, -103.26)" d="M 90 100.23 s -6.69 6.06 -14.62 6.06 h 0 c -7.94 0 -14.62 -6.06 -14.62 -6.06" stroke-linecap="round" />
</g>
</svg>