<?xml version="1.0" encoding="UTF-8" standalone="no" ?>
<!DOCTYPE svg PUBLIC "-//W3C//DTD SVG 1.1//EN" "http://www.w3.org/Graphics/SVG/1.1/DTD/svg11.dtd">
<svg xmlns="http://www.w3.org/2000/svg" xmlns:xlink="http://www.w3.org/1999/xlink" version="1.1" width="400" height="400" viewBox="0 0 400 400" xml:space="preserve">
<desc>Created with Fabric.js 3.6.2</desc>
<defs>
</defs>
<g transform="matrix(4.17 0 0 4.17 158.33 158.33)" id="surface1"  >
<path style="stroke: none; stroke-width: 1; stroke-dasharray: none; stroke-linecap: butt; stroke-dashoffset: 0; stroke-linejoin: miter; stroke-miterlimit: 4; fill: rgb(207,216,220); fill-rule: nonzero; opacity: 1;"  transform=" translate(-14, -14)" d="M 18 14 c 0 2.2 -1.8 4 -4 4 s -4 -1.8 -4 -4 s 1.8 -4 4 -4 S 18 11.8 18 14 z" stroke-linecap="round" />
</g>
<g transform="matrix(4.17 0 0 4.17 241.67 158.33)" id="surface1"  >
<path style="stroke: none; stroke-width: 1; stroke-dasharray: none; stroke-linecap: butt; stroke-dashoffset: 0; stroke-linejoin: miter; stroke-miterlimit: 4; fill: rgb(207,216,220); fill-rule: nonzero; opacity: 1;"  transform=" translate(-34, -14)" d="M 38 14 c 0 2.2 -1.8 4 -4 4 s -4 -1.8 -4 -4 s 1.8 -4 4 -4 S 38 11.8 38 14 z" stroke-linecap="round" />
</g>
<g transform="matrix(4.17 0 0 4.17 262.5 200)" id="surface1"  >
<path style="stroke: none; stroke-width: 1; stroke-dasharray: none; stroke-linecap: butt; stroke-dashoffset: 0; stroke-linejoin: miter; stroke-miterlimit: 4; fill: rgb(207,216,220); fill-rule: nonzero; opacity: 1;"  transform=" translate(-39, -24)" d="M 43 24 c 0 2.2 -1.8 4 -4 4 s -4 -1.8 -4 -4 s 1.8 -4 4 -4 S 43 21.8 43 24 z" stroke-linecap="round" />
</g>
<g transform="matrix(4.17 0 0 4.17 137.5 200)" id="surface1"  >
<path style="stroke: none; stroke-width: 1; stroke-dasharray: none; stroke-linecap: butt; stroke-dashoffset: 0; stroke-linejoin: miter; stroke-miterlimit: 4; fill: rgb(207,216,220); fill-rule: nonzero; opacity: 1;"  transform=" translate(-9, -24)" d="M 13 24 c 0 2.2 -1.8 4 -4 4 s -4 -1.8 -4 -4 s 1.8 -4 4 -4 S 13 21.8 13 24 z" stroke-linecap="round" />
</g>
<g transform="matrix(4.17 0 0 4.17 254.17 179.17)" id="surface1"  >
<path style="stroke: none; stroke-width: 1; stroke-dasharray: none; stroke-linecap: butt; stroke-dashoffset: 0; stroke-linejoin: miter; stroke-miterlimit: 4; fill: rgb(207,216,220); fill-rule: nonzero; opacity: 1;"  transform=" translate(-37, -19)" d="M 41 19 c 0 2.2 -1.8 4 -4 4 s -4 -1.8 -4 -4 s 1.8 -4 4 -4 S 41 16.8 41 19 z" stroke-linecap="round" />
</g>
<g transform="matrix(4.17 0 0 4.17 250 225)" id="surface1"  >
<path style="stroke: none; stroke-width: 1; stroke-dasharray: none; stroke-linecap: butt; stroke-dashoffset: 0; stroke-linejoin: miter; stroke-miterlimit: 4; fill: rgb(207,216,220); fill-rule: nonzero; opacity: 1;"  transform=" translate(-36, -30)" d="M 40 30 c 0 2.2 -1.8 4 -4 4 s -4 -1.8 -4 -4 s 1.8 -4 4 -4 S 40 27.8 40 30 z" stroke-linecap="round" />
</g>
<g transform="matrix(4.17 0 0 4.17 200 129.17)" id="surface1"  >
<path style="stroke: none; stroke-width: 1; stroke-dasharray: none; stroke-linecap: butt; stroke-dashoffset: 0; stroke-linejoin: miter; stroke-miterlimit: 4; fill: rgb(207,216,220); fill-rule: nonzero; opacity: 1;"  transform=" translate(-24, -7)" d="M 28 7 c 0 2.2 -1.8 4 -4 4 s -4 -1.8 -4 -4 s 1.8 -4 4 -4 S 28 4.8 28 7 z" stroke-linecap="round" />
</g>
<g transform="matrix(4.17 0 0 4.17 225 137.5)" id="surface1"  >
<path style="stroke: none; stroke-width: 1; stroke-dasharray: none; stroke-linecap: butt; stroke-dashoffset: 0; stroke-linejoin: miter; stroke-miterlimit: 4; fill: rgb(207,216,220); fill-rule: nonzero; opacity: 1;"  transform=" translate(-30, -9)" d="M 34 9 c 0 2.2 -1.8 4 -4 4 s -4 -1.8 -4 -4 s 1.8 -4 4 -4 S 34 6.8 34 9 z" stroke-linecap="round" />
</g>
<g transform="matrix(4.17 0 0 4.17 175 137.5)" id="surface1"  >
<path style="stroke: none; stroke-width: 1; stroke-dasharray: none; stroke-linecap: butt; stroke-dashoffset: 0; stroke-linejoin: miter; stroke-miterlimit: 4; fill: rgb(207,216,220); fill-rule: nonzero; opacity: 1;"  transform=" translate(-18, -9)" d="M 22 9 c 0 2.2 -1.8 4 -4 4 s -4 -1.8 -4 -4 s 1.8 -4 4 -4 S 22 6.8 22 9 z" stroke-linecap="round" />
</g>
<g transform="matrix(4.17 0 0 4.17 145.83 183.33)" id="surface1"  >
<path style="stroke: none; stroke-width: 1; stroke-dasharray: none; stroke-linecap: butt; stroke-dashoffset: 0; stroke-linejoin: miter; stroke-miterlimit: 4; fill: rgb(207,216,220); fill-rule: nonzero; opacity: 1;"  transform=" translate(-11, -20)" d="M 15 20 c 0 2.2 -1.8 4 -4 4 s -4 -1.8 -4 -4 s 1.8 -4 4 -4 S 15 17.8 15 20 z" stroke-linecap="round" />
</g>
<g transform="matrix(4.17 0 0 4.17 150 225)" id="surface1"  >
<path style="stroke: none; stroke-width: 1; stroke-dasharray: none; stroke-linecap: butt; stroke-dashoffset: 0; stroke-linejoin: miter; stroke-miterlimit: 4; fill: rgb(207,216,220); fill-rule: nonzero; opacity: 1;"  transform=" translate(-12, -30)" d="M 16 30 c 0 2.2 -1.8 4 -4 4 s -4 -1.8 -4 -4 s 1.8 -4 4 -4 S 16 27.8 16 30 z" stroke-linecap="round" />
</g>
<g transform="matrix(4.17 0 0 4.17 170.83 245.83)" id="surface1"  >
<path style="stroke: none; stroke-width: 1; stroke-dasharray: none; stroke-linecap: butt; stroke-dashoffset: 0; stroke-linejoin: miter; stroke-miterlimit: 4; fill: rgb(207,216,220); fill-rule: nonzero; opacity: 1;"  transform=" translate(-17, -35)" d="M 21 35 c 0 2.2 -1.8 4 -4 4 s -4 -1.8 -4 -4 s 1.8 -4 4 -4 S 21 32.8 21 35 z" stroke-linecap="round" />
</g>
<g transform="matrix(4.17 0 0 4.17 229.17 245.83)" id="surface1"  >
<path style="stroke: none; stroke-width: 1; stroke-dasharray: none; stroke-linecap: butt; stroke-dashoffset: 0; stroke-linejoin: miter; stroke-miterlimit: 4; fill: rgb(207,216,220); fill-rule: nonzero; opacity: 1;"  transform=" translate(-31, -35)" d="M 35 35 c 0 2.2 -1.8 4 -4 4 s -4 -1.8 -4 -4 s 1.8 -4 4 -4 S 35 32.8 35 35 z" stroke-linecap="round" />
</g>
<g transform="matrix(4.17 0 0 4.17 200 254.17)" id="surface1"  >
<path style="stroke: none; stroke-width: 1; stroke-dasharray: none; stroke-linecap: butt; stroke-dashoffset: 0; stroke-linejoin: miter; stroke-miterlimit: 4; fill: rgb(207,216,220); fill-rule: nonzero; opacity: 1;"  transform=" translate(-24, -37)" d="M 28 37 c 0 2.2 -1.8 4 -4 4 s -4 -1.8 -4 -4 s 1.8 -4 4 -4 S 28 34.8 28 37 z" stroke-linecap="round" />
</g>
<g transform="matrix(4.17 0 0 4.17 200 158.33)" id="surface1"  >
<path style="stroke: none; stroke-width: 1; stroke-dasharray: none; stroke-linecap: butt; stroke-dashoffset: 0; stroke-linejoin: miter; stroke-miterlimit: 4; fill: rgb(207,216,220); fill-rule: nonzero; opacity: 1;"  transform=" translate(-24, -14)" d="M 32 14 c 0 4.4 -3.6 8 -8 8 s -8 -3.6 -8 -8 s 3.6 -8 8 -8 S 32 9.6 32 14 z" stroke-linecap="round" />
</g>
<g transform="matrix(4.17 0 0 4.17 162.5 195.83)" id="surface1"  >
<path style="stroke: none; stroke-width: 1; stroke-dasharray: none; stroke-linecap: butt; stroke-dashoffset: 0; stroke-linejoin: miter; stroke-miterlimit: 4; fill: rgb(176,190,197); fill-rule: nonzero; opacity: 1;"  transform=" translate(-15, -23)" d="M 19 23 c 0 2.2 -1.8 4 -4 4 s -4 -1.8 -4 -4 s 1.8 -4 4 -4 S 19 20.8 19 23 z" stroke-linecap="round" />
</g>
<g transform="matrix(4.17 0 0 4.17 237.5 195.83)" id="surface1"  >
<path style="stroke: none; stroke-width: 1; stroke-dasharray: none; stroke-linecap: butt; stroke-dashoffset: 0; stroke-linejoin: miter; stroke-miterlimit: 4; fill: rgb(176,190,197); fill-rule: nonzero; opacity: 1;"  transform=" translate(-33, -23)" d="M 37 23 c 0 2.2 -1.8 4 -4 4 s -4 -1.8 -4 -4 s 1.8 -4 4 -4 S 37 20.8 37 23 z" stroke-linecap="round" />
</g>
<g transform="matrix(4.17 0 0 4.17 225 220.83)" id="surface1"  >
<path style="stroke: none; stroke-width: 1; stroke-dasharray: none; stroke-linecap: butt; stroke-dashoffset: 0; stroke-linejoin: miter; stroke-miterlimit: 4; fill: rgb(176,190,197); fill-rule: nonzero; opacity: 1;"  transform=" translate(-30, -29)" d="M 34 29 c 0 2.2 -1.8 4 -4 4 s -4 -1.8 -4 -4 s 1.8 -4 4 -4 S 34 26.8 34 29 z" stroke-linecap="round" />
</g>
<g transform="matrix(4.17 0 0 4.17 175 220.83)" id="surface1"  >
<path style="stroke: none; stroke-width: 1; stroke-dasharray: none; stroke-linecap: butt; stroke-dashoffset: 0; stroke-linejoin: miter; stroke-miterlimit: 4; fill: rgb(176,190,197); fill-rule: nonzero; opacity: 1;"  transform=" translate(-18, -29)" d="M 22 29 c 0 2.2 -1.8 4 -4 4 s -4 -1.8 -4 -4 s 1.8 -4 4 -4 S 22 26.8 22 29 z" stroke-linecap="round" />
</g>
<g transform="matrix(4.17 0 0 4.17 200 237.5)" id="surface1"  >
<path style="stroke: none; stroke-width: 1; stroke-dasharray: none; stroke-linecap: butt; stroke-dashoffset: 0; stroke-linejoin: miter; stroke-miterlimit: 4; fill: rgb(176,190,197); fill-rule: nonzero; opacity: 1;"  transform=" translate(-24, -33)" d="M 28 33 c 0 2.2 -1.8 4 -4 4 s -4 -1.8 -4 -4 s 1.8 -4 4 -4 S 28 30.8 28 33 z" stroke-linecap="round" />
</g>
<g transform="matrix(4.17 0 0 4.17 166.67 175)" id="surface1"  >
<path style="stroke: none; stroke-width: 1; stroke-dasharray: none; stroke-linecap: butt; stroke-dashoffset: 0; stroke-linejoin: miter; stroke-miterlimit: 4; fill: rgb(176,190,197); fill-rule: nonzero; opacity: 1;"  transform=" translate(-16, -18)" d="M 18 18 c 0 1.1 -0.9 2 -2 2 s -2 -0.9 -2 -2 s 0.9 -2 2 -2 S 18 16.9 18 18 z" stroke-linecap="round" />
</g>
<g transform="matrix(4.17 0 0 4.17 233.33 175)" id="surface1"  >
<path style="stroke: none; stroke-width: 1; stroke-dasharray: none; stroke-linecap: butt; stroke-dashoffset: 0; stroke-linejoin: miter; stroke-miterlimit: 4; fill: rgb(176,190,197); fill-rule: nonzero; opacity: 1;"  transform=" translate(-32, -18)" d="M 34 18 c 0 1.1 -0.9 2 -2 2 s -2 -0.9 -2 -2 s 0.9 -2 2 -2 S 34 16.9 34 18 z" stroke-linecap="round" />
</g>
<g transform="matrix(4.17 0 0 4.17 200 197.92)" id="surface1"  >
<path style="stroke: none; stroke-width: 1; stroke-dasharray: none; stroke-linecap: butt; stroke-dashoffset: 0; stroke-linejoin: miter; stroke-miterlimit: 4; fill: rgb(141,110,99); fill-rule: nonzero; opacity: 1;"  transform=" translate(-24, -23.5)" d="M 16.5 15 c -0.3 0.7 -0.5 1.5 -0.5 2.5 c 0 3.6 3.6 14.5 8 14.5 s 8 -10.9 8 -14.5 c 0 -1 -0.2 -1.8 -0.5 -2.5 H 16.5 z" stroke-linecap="round" />
</g>
<g transform="matrix(4.17 0 0 4.17 181.25 172.92)" id="surface1"  >
<path style="stroke: none; stroke-width: 1; stroke-dasharray: none; stroke-linecap: butt; stroke-dashoffset: 0; stroke-linejoin: miter; stroke-miterlimit: 4; fill: rgb(255,193,7); fill-rule: nonzero; opacity: 1;"  transform=" translate(-19.5, -17.5)" d="M 22 17.5 c 0 1.4 -1.1 2.5 -2.5 2.5 S 17 18.9 17 17.5 s 1.1 -2.5 2.5 -2.5 S 22 16.1 22 17.5 z" stroke-linecap="round" />
</g>
<g transform="matrix(4.17 0 0 4.17 218.75 172.92)" id="surface1"  >
<path style="stroke: none; stroke-width: 1; stroke-dasharray: none; stroke-linecap: butt; stroke-dashoffset: 0; stroke-linejoin: miter; stroke-miterlimit: 4; fill: rgb(255,193,7); fill-rule: nonzero; opacity: 1;"  transform=" translate(-28.5, -17.5)" d="M 31 17.5 c 0 1.4 -1.1 2.5 -2.5 2.5 S 26 18.9 26 17.5 s 1.1 -2.5 2.5 -2.5 S 31 16.1 31 17.5 z" stroke-linecap="round" />
</g>
<g transform="matrix(4.17 0 0 4.17 218.75 168.75)" id="surface1"  >
<path style="stroke: none; stroke-width: 1; stroke-dasharray: none; stroke-linecap: butt; stroke-dashoffset: 0; stroke-linejoin: miter; stroke-miterlimit: 4; fill: rgb(0,0,0); fill-rule: nonzero; opacity: 1;"  transform=" translate(-28.5, -16.5)" d="M 30 16.5 c 0 0.8 -0.7 1.5 -1.5 1.5 S 27 17.3 27 16.5 s 0.7 -1.5 1.5 -1.5 S 30 15.7 30 16.5 z" stroke-linecap="round" />
</g>
<g transform="matrix(4.17 0 0 4.17 181.25 168.75)" id="surface1"  >
<path style="stroke: none; stroke-width: 1; stroke-dasharray: none; stroke-linecap: butt; stroke-dashoffset: 0; stroke-linejoin: miter; stroke-miterlimit: 4; fill: rgb(0,0,0); fill-rule: nonzero; opacity: 1;"  transform=" translate(-19.5, -16.5)" d="M 21 16.5 c 0 0.8 -0.7 1.5 -1.5 1.5 S 18 17.3 18 16.5 s 0.7 -1.5 1.5 -1.5 S 21 15.7 21 16.5 z" stroke-linecap="round" />
</g>
<g transform="matrix(4.17 0 0 4.17 154.59 165.74)" id="surface1"  >
<path style="stroke: none; stroke-width: 1; stroke-dasharray: none; stroke-linecap: butt; stroke-dashoffset: 0; stroke-linejoin: miter; stroke-miterlimit: 4; fill: rgb(93,64,55); fill-rule: nonzero; opacity: 1;"  transform=" translate(-13.1, -15.78)" d="M 19.2 14 c 0 0 -11 -1 -12 0 s 2 4 5 4 s 3 -2 5 -2" stroke-linecap="round" />
</g>
<g transform="matrix(4.17 0 0 4.17 246.24 165.74)" id="surface1"  >
<path style="stroke: none; stroke-width: 1; stroke-dasharray: none; stroke-linecap: butt; stroke-dashoffset: 0; stroke-linejoin: miter; stroke-miterlimit: 4; fill: rgb(93,64,55); fill-rule: nonzero; opacity: 1;"  transform=" translate(-35.1, -15.78)" d="M 29 14 c 0 0 11 -1 12 0 s -2 4 -5 4 s -3 -2 -5 -2" stroke-linecap="round" />
</g>
<g transform="matrix(4.17 0 0 4.17 200.21 156.25)" id="surface1"  >
<path style="stroke: none; stroke-width: 1; stroke-dasharray: none; stroke-linecap: butt; stroke-dashoffset: 0; stroke-linejoin: miter; stroke-miterlimit: 4; fill: rgb(93,64,55); fill-rule: nonzero; opacity: 1;"  transform=" translate(-24.05, -13.5)" d="M 30.6 13.8 c -1.2 0 -2.1 -0.9 -2.3 -2 c 0 0 0 0 -0.1 0 c -0.3 0.8 -1.1 1.4 -2 1.4 c -1.2 0 -2.2 -1 -2.2 -2.2 c 0 0 0 0 0 0 c -0.1 1.2 -1 2.1 -2.2 2.1 c -0.9 0 -1.7 -0.5 -2 -1.3 c 0 0 0 0 0 0 c -0.2 1.1 -1.1 2 -2.3 2 c -0.1 0 -0.2 0 -0.3 0 c -0.5 0.6 -0.8 1.4 -1 2.2 h 15.7 c -0.2 -0.8 -0.5 -1.6 -1 -2.2 C 30.7 13.8 30.6 13.8 30.6 13.8 z" stroke-linecap="round" />
</g>
<g transform="matrix(4.17 0 0 4.17 193.75 216.67)" id="surface1"  >
<path style="stroke: none; stroke-width: 1; stroke-dasharray: none; stroke-linecap: butt; stroke-dashoffset: 0; stroke-linejoin: miter; stroke-miterlimit: 4; fill: rgb(62,39,35); fill-rule: nonzero; opacity: 1;"  transform=" translate(-22.5, -28)" d="M 24 29 c 0 0 -1.4 0 -2 0 s -1 -0.4 -1 -1 s 0.4 -1 1 -1 S 24 29 24 29 z" stroke-linecap="round" />
</g>
<g transform="matrix(4.17 0 0 4.17 206.25 216.67)" id="surface1"  >
<path style="stroke: none; stroke-width: 1; stroke-dasharray: none; stroke-linecap: butt; stroke-dashoffset: 0; stroke-linejoin: miter; stroke-miterlimit: 4; fill: rgb(62,39,35); fill-rule: nonzero; opacity: 1;"  transform=" translate(-25.5, -28)" d="M 24 29 c 0 0 1.4 0 2 0 s 1 -0.4 1 -1 s -0.4 -1 -1 -1 S 24 29 24 29 z" stroke-linecap="round" />
</g>
<g transform="matrix(4.17 0 0 4.17 241.67 245.83)" id="surface1"  >
<path style="stroke: none; stroke-width: 1; stroke-dasharray: none; stroke-linecap: butt; stroke-dashoffset: 0; stroke-linejoin: miter; stroke-miterlimit: 4; fill: rgb(198,40,40); fill-rule: nonzero; opacity: 1;"  transform=" translate(-34, -35)" d="M 29 40 h -3 v -2 h 3 c 0.7 0 1 -0.4 1.1 -0.5 l 3 -5.9 c 0.4 -0.6 1.4 -1.6 2.9 -1.6 h 6 v 2 h -6 c -0.7 0 -1 0.4 -1.1 0.5 l -3 5.9 c 0 0 0 0.1 -0.1 0.1 C 31.5 39.1 30.5 40 29 40 z" stroke-linecap="round" />
</g>
<g transform="matrix(4.17 0 0 4.17 158.33 245.83)" id="surface1"  >
<path style="stroke: none; stroke-width: 1; stroke-dasharray: none; stroke-linecap: butt; stroke-dashoffset: 0; stroke-linejoin: miter; stroke-miterlimit: 4; fill: rgb(198,40,40); fill-rule: nonzero; opacity: 1;"  transform=" translate(-14, -35)" d="M 22 40 h -3 c -1.5 0 -2.5 -0.9 -2.8 -1.4 c 0 0 0 -0.1 -0.1 -0.1 l -3 -5.9 C 13 32.4 12.7 32 12 32 H 6 v -2 h 6 c 1.5 0 2.5 0.9 2.8 1.5 l 3 6 c 0.1 0.1 0.5 0.5 1.1 0.5 h 3 V 40 z" stroke-linecap="round" />
</g>
<g transform="matrix(4.17 0 0 4.17 266.67 235.42)" id="surface1"  >
<path style="stroke: none; stroke-width: 1; stroke-dasharray: none; stroke-linecap: butt; stroke-dashoffset: 0; stroke-linejoin: miter; stroke-miterlimit: 4; fill: rgb(244,67,54); fill-rule: nonzero; opacity: 1;"  transform=" translate(-40, -32.5)" d="M 44 33 c 0 1.1 -0.9 2 -2 2 h -4 c -1.1 0 -2 -0.9 -2 -2 v -1 c 0 -1.1 0.9 -2 2 -2 h 4 c 1.1 0 2 0.9 2 2 V 33 z" stroke-linecap="round" />
</g>
<g transform="matrix(4.17 0 0 4.17 133.33 235.42)" id="surface1"  >
<path style="stroke: none; stroke-width: 1; stroke-dasharray: none; stroke-linecap: butt; stroke-dashoffset: 0; stroke-linejoin: miter; stroke-miterlimit: 4; fill: rgb(244,67,54); fill-rule: nonzero; opacity: 1;"  transform=" translate(-8, -32.5)" d="M 4 33 c 0 1.1 0.9 2 2 2 h 4 c 1.1 0 2 -0.9 2 -2 v -1 c 0 -1.1 -0.9 -2 -2 -2 H 6 c -1.1 0 -2 0.9 -2 2 V 33 z" stroke-linecap="round" />
</g>
<g transform="matrix(4.17 0 0 4.17 200 262.5)" id="surface1"  >
<path style="stroke: none; stroke-width: 1; stroke-dasharray: none; stroke-linecap: butt; stroke-dashoffset: 0; stroke-linejoin: miter; stroke-miterlimit: 4; fill: rgb(69,90,100); fill-rule: nonzero; opacity: 1;"  transform=" translate(-24, -39)" d="M 29 39 c 0 2.8 -2.2 5 -5 5 s -5 -2.2 -5 -5 s 2.2 -5 5 -5 S 29 36.2 29 39 z" stroke-linecap="round" />
</g>
<g transform="matrix(4.17 0 0 4.17 200 262.5)" id="surface1"  >
<path style="stroke: none; stroke-width: 1; stroke-dasharray: none; stroke-linecap: butt; stroke-dashoffset: 0; stroke-linejoin: miter; stroke-miterlimit: 4; fill: rgb(253,216,53); fill-rule: nonzero; opacity: 1;"  transform=" translate(-24, -39)" d="M 27 39 c 0 1.7 -1.3 3 -3 3 s -3 -1.3 -3 -3 s 1.3 -3 3 -3 S 27 37.3 27 39 z" stroke-linecap="round" />
</g>
<g transform="matrix(4.17 0 0 4.17 200 257.29)" id="surface1"  >
<path style="stroke: none; stroke-width: 1; stroke-dasharray: none; stroke-linecap: butt; stroke-dashoffset: 0; stroke-linejoin: miter; stroke-miterlimit: 4; fill: rgb(255,245,157); fill-rule: nonzero; opacity: 1;"  transform=" translate(-24, -37.75)" d="M 24.2 39 c 1 0 2 0.2 2.8 0.4 c 0 -0.1 0 -0.3 0 -0.4 c 0 -1.7 -1.3 -3 -3 -3 s -3 1.3 -3 3 c 0 0.2 0 0.4 0.1 0.5 C 21.9 39.2 23 39 24.2 39 z" stroke-linecap="round" />
</g>
</svg>