<?xml version="1.0" encoding="UTF-8" standalone="no" ?>
<!DOCTYPE svg PUBLIC "-//W3C//DTD SVG 1.1//EN" "http://www.w3.org/Graphics/SVG/1.1/DTD/svg11.dtd">
<svg xmlns="http://www.w3.org/2000/svg" xmlns:xlink="http://www.w3.org/1999/xlink" version="1.1" width="400" height="400" viewBox="0 0 400 400" xml:space="preserve">
<desc>Created with Fabric.js 3.6.2</desc>
<defs>
</defs>
<g transform="matrix(4.17 0 0 4.17 200 200)" id="Layer_1"  >
<path style="stroke: none; stroke-width: 1; stroke-dasharray: none; stroke-linecap: butt; stroke-dashoffset: 0; stroke-linejoin: miter; stroke-miterlimit: 4; fill: rgb(121,85,72); fill-rule: nonzero; opacity: 1;"  transform=" translate(-24, -24)" d="M 24 5 L 24 5 L 24 5 C 12.954 5 4 13.954 4 25 v 5.773 c 0 2.242 0.976 4.385 2.709 5.812 C 9.937 39.245 15.925 43 24 43 s 14.063 -3.755 17.291 -6.415 C 43.024 35.158 44 33.015 44 30.773 V 25 C 44 13.954 35.046 5 24 5 z" stroke-linecap="round" />
</g>
<g transform="matrix(4.17 0 0 4.17 200 218.75)" id="Layer_1"  >
<path style="stroke: none; stroke-width: 1; stroke-dasharray: none; stroke-linecap: butt; stroke-dashoffset: 0; stroke-linejoin: miter; stroke-miterlimit: 4; fill: rgb(215,204,200); fill-rule: nonzero; opacity: 1;"  transform=" translate(-24, -28.5)" d="M 33 24 c 4 0 7 4 7 7 v -1.667 C 40 22.522 34.478 17 27.667 17 h -7.333 C 13.522 17 8 22.522 8 29.333 V 31 c 0 -3 3 -7 7 -7 c 2.201 0 3 1.794 3 3 v 1 c -1 0 -4.042 0.5 -5.75 1.792 c -0.286 0.217 -0.596 0.451 -0.914 0.691 c -1.827 1.38 -1.8 4.151 0.078 5.461 C 14.159 37.857 18.467 40 24 40 s 9.841 -2.143 12.586 -4.057 c 1.878 -1.31 1.905 -4.081 0.078 -5.461 c -0.317 -0.24 -0.627 -0.474 -0.914 -0.691 C 34.042 28.5 31 28 30 28 v -1 C 30 25.794 30.799 24 33 24 z" stroke-linecap="round" />
</g>
<g transform="matrix(4.17 0 0 4.17 200 243.75)" id="Layer_1"  >
<path style="stroke: none; stroke-width: 1; stroke-dasharray: none; stroke-linecap: butt; stroke-dashoffset: 0; stroke-linejoin: miter; stroke-miterlimit: 4; fill: rgb(109,76,65); fill-rule: nonzero; opacity: 1;"  transform=" translate(-24, -34.5)" d="M 24 34 l -11 -3 c 6 2 6 7 11 7 s 5 -5 11 -7 L 24 34 z" stroke-linecap="round" />
</g>
<g transform="matrix(4.17 0 0 4.17 200 237.5)" id="Layer_1"  >
<path style="stroke: none; stroke-width: 1; stroke-dasharray: none; stroke-linecap: butt; stroke-dashoffset: 0; stroke-linejoin: miter; stroke-miterlimit: 4; fill: rgb(78,52,46); fill-rule: nonzero; opacity: 1;"  transform=" translate(-24, -33)" d="M 13 31 c 1.901 0.452 3.741 0.918 5.573 1.314 C 20.404 32.695 22.232 32.982 24 33 c 1.767 -0.022 3.595 -0.307 5.426 -0.689 C 31.258 31.915 33.098 31.45 35 31 c -1.55 1.205 -3.299 2.106 -5.134 2.808 C 28.026 34.494 26.069 34.984 24 35 c -2.068 -0.019 -4.025 -0.508 -5.865 -1.194 C 16.3 33.103 14.551 32.202 13 31 z" stroke-linecap="round" />
</g>
<g transform="matrix(4.17 0 0 4.17 200 222.92)" id="Layer_1"  >
<path style="stroke: none; stroke-width: 1; stroke-dasharray: none; stroke-linecap: butt; stroke-dashoffset: 0; stroke-linejoin: miter; stroke-miterlimit: 4; fill: rgb(78,52,46); fill-rule: nonzero; opacity: 1;"  transform=" translate(-24, -29.5)" d="M 24 33 c -3 0 -4 -4 -4 -4 c 0 -1.657 1.343 -3 3 -3 h 2 c 1.657 0 3 1.343 3 3 C 28 29 27 33 24 33 z" stroke-linecap="round" />
</g>
<g transform="matrix(4.17 0 0 4.17 209.68 230.91)" id="Layer_1"  >
<path style="stroke: none; stroke-width: 1; stroke-dasharray: none; stroke-linecap: butt; stroke-dashoffset: 0; stroke-linejoin: miter; stroke-miterlimit: 4; fill: rgb(38,21,18); fill-rule: nonzero; opacity: 1;"  transform=" translate(-26.32, -31.42)" d="M 25 32.837 c 1.401 -0.47 2.225 -1.864 2.644 -2.837 H 26 c -0.55 0 -1 0.45 -1 1 V 32.837 z" stroke-linecap="round" />
</g>
<g transform="matrix(4.17 0 0 4.17 190.32 230.91)" id="Layer_1"  >
<path style="stroke: none; stroke-width: 1; stroke-dasharray: none; stroke-linecap: butt; stroke-dashoffset: 0; stroke-linejoin: miter; stroke-miterlimit: 4; fill: rgb(38,21,18); fill-rule: nonzero; opacity: 1;"  transform=" translate(-21.68, -31.42)" d="M 23 32.837 V 31 c 0 -0.55 -0.45 -1 -1 -1 h -1.644 C 20.775 30.972 21.599 32.367 23 32.837 z" stroke-linecap="round" />
</g>
<g transform="matrix(4.17 0 0 4.17 164.58 208.33)" id="Layer_1"  >
<path style="stroke: none; stroke-width: 1; stroke-dasharray: none; stroke-linecap: butt; stroke-dashoffset: 0; stroke-linejoin: miter; stroke-miterlimit: 4; fill: rgb(0,0,1); fill-rule: nonzero; opacity: 1;"  transform=" translate(-15.5, -26)" d="M 17 27 c 0 0 0 -2 -2 -2 c 0 0 -1 0 -1 1 s 1 1 1 1 H 17 z" stroke-linecap="round" />
</g>
<g transform="matrix(4.17 0 0 4.17 235.33 208.42)" id="Layer_1"  >
<path style="stroke: none; stroke-width: 1; stroke-dasharray: none; stroke-linecap: butt; stroke-dashoffset: 0; stroke-linejoin: miter; stroke-miterlimit: 4; fill: rgb(0,0,1); fill-rule: nonzero; opacity: 1;"  transform=" translate(-32.48, -26.02)" d="M 30.979 27.021 c 0 0 0 -2 2 -2 c 0 0 1 0 1 1 s -1 1 -1 1 H 30.979 z" stroke-linecap="round" />
</g>
</svg>