<?xml version="1.0" encoding="UTF-8" standalone="no" ?>
<!DOCTYPE svg PUBLIC "-//W3C//DTD SVG 1.1//EN" "http://www.w3.org/Graphics/SVG/1.1/DTD/svg11.dtd">
<svg xmlns="http://www.w3.org/2000/svg" xmlns:xlink="http://www.w3.org/1999/xlink" version="1.1" width="400" height="400" viewBox="0 0 400 400" xml:space="preserve">
<desc>Created with Fabric.js 3.6.2</desc>
<defs>
</defs>
<g transform="matrix(4.17 0 0 4.17 195.83 208.33)" id="surface1"  >
<path style="stroke: none; stroke-width: 1; stroke-dasharray: none; stroke-linecap: butt; stroke-dashoffset: 0; stroke-linejoin: miter; stroke-miterlimit: 4; fill: rgb(121,85,72); fill-rule: nonzero; opacity: 1;"  transform=" translate(-23, -26)" d="M 38 13.9 L 38 13.9 c -0.3 -1.6 -1.7 -2.9 -3.5 -2.9 c -1.9 0 -3.5 1.6 -3.5 3.5 c 0 0.2 0 0.4 0.1 0.6 v 0 c 0 0 0 0.1 0 0.1 C 34 30.1 27 31 19 32 C 7.9 33.4 6 39 6 39 s 0 2 2 2 s 20 0 20 0 s 12 0 12 -12 C 40 22 39 20.9 38 13.9 z" stroke-linecap="round" />
</g>
<g transform="matrix(2.67 -3.2 3.2 2.67 260.48 137.47)" id="surface1"  >
<rect style="stroke: none; stroke-width: 1; stroke-dasharray: none; stroke-linecap: butt; stroke-dashoffset: 0; stroke-linejoin: miter; stroke-miterlimit: 4; fill: rgb(121,85,72); fill-rule: nonzero; opacity: 1;"  x="-3.9" y="-1" rx="0" ry="0" width="7.8" height="2" />
</g>
<g transform="matrix(3.39 -2.42 2.42 3.39 227.12 139.57)" id="surface1"  >
<rect style="stroke: none; stroke-width: 1; stroke-dasharray: none; stroke-linecap: butt; stroke-dashoffset: 0; stroke-linejoin: miter; stroke-miterlimit: 4; fill: rgb(121,85,72); fill-rule: nonzero; opacity: 1;"  x="-1" y="-4.3" rx="0" ry="0" width="2" height="8.6" />
</g>
<g transform="matrix(4.17 0 0 4.17 266.67 129.17)" id="surface1"  >
<path style="stroke: none; stroke-width: 1; stroke-dasharray: none; stroke-linecap: butt; stroke-dashoffset: 0; stroke-linejoin: miter; stroke-miterlimit: 4; fill: rgb(93,64,55); fill-rule: nonzero; opacity: 1;"  transform=" translate(-40, -7)" d="M 42 7 c 0 1.1 -0.9 2 -2 2 s -2 -0.9 -2 -2 s 0.9 -2 2 -2 S 42 5.9 42 7 z" stroke-linecap="round" />
</g>
<g transform="matrix(4.17 0 0 4.17 220.83 129.17)" id="surface1"  >
<path style="stroke: none; stroke-width: 1; stroke-dasharray: none; stroke-linecap: butt; stroke-dashoffset: 0; stroke-linejoin: miter; stroke-miterlimit: 4; fill: rgb(93,64,55); fill-rule: nonzero; opacity: 1;"  transform=" translate(-29, -7)" d="M 31 7 c 0 1.1 -0.9 2 -2 2 s -2 -0.9 -2 -2 s 0.9 -2 2 -2 S 31 5.9 31 7 z" stroke-linecap="round" />
</g>
<g transform="matrix(4.17 0 0 4.17 197.92 212.13)" id="surface1"  >
<path style="stroke: none; stroke-width: 1; stroke-dasharray: none; stroke-linecap: butt; stroke-dashoffset: 0; stroke-linejoin: miter; stroke-miterlimit: 4; fill: rgb(188,170,164); fill-rule: nonzero; opacity: 1;"  transform=" translate(-23.5, -26.91)" d="M 38 14.2 c -0.3 -0.7 -1 -1.3 -2 -1.3 c -1.1 0 -2 0.9 -2 2 c 0 0.3 2.5 13 0 18 c -3 6 -7 6 -9 6 c -1.5 0 -13.3 0 -19 0 c 0 0 0 2 2 2 s 20 0 20 0 s 13 1 13 -11 C 41 23.1 39 22 38 14.2 z" stroke-linecap="round" />
</g>
<g transform="matrix(4.17 0 0 4.17 191.39 220.63)" id="surface1"  >
<path style="stroke: none; stroke-width: 1; stroke-dasharray: none; stroke-linecap: butt; stroke-dashoffset: 0; stroke-linejoin: miter; stroke-miterlimit: 4; fill: rgb(78,52,46); fill-rule: nonzero; opacity: 1;"  transform=" translate(-21.93, -28.95)" d="M 31.8 19.9 C 31.7 19.9 31.7 19.9 31.8 19.9 C 32.4 30.3 26 31.1 19 32 c -2.5 0.3 -4.6 0.9 -6.3 1.5 c -0.4 0.3 -0.7 0.4 -0.9 0.4 c 0 0 0 0 0 0 c -0.4 0.2 -0.7 0.3 -1 0.5 c 0 0 0 0 0 0 c -0.3 0.2 -0.6 0.3 -0.9 0.5 c 0 0 0 0 0 0 c 1.8 1.4 4 2.4 6.3 2.8 c 0.3 0.1 0.6 0.1 1 0.2 c 0.1 0 0.2 0 0.3 0 c 0.6 0.1 1.4 0.1 2.2 0.1 c 0.7 0 1.3 0 1.9 -0.1 l 0.4 -0.1 l 0.4 -0.2 c 1.2 -0.7 2.2 -1.5 3.1 -2.4 c 0.8 -0.8 1.5 -1.7 2 -2.6 c 3 -0.7 6.3 -2.5 6.4 -6.1 C 34 26.3 34.3 23.4 31.8 19.9 z" stroke-linecap="round" />
</g>
<g transform="matrix(4.17 0 0 4.17 179.27 195.83)" id="surface1"  >
<path style="stroke: none; stroke-width: 1; stroke-dasharray: none; stroke-linecap: butt; stroke-dashoffset: 0; stroke-linejoin: miter; stroke-miterlimit: 4; fill: rgb(255,152,0); fill-rule: nonzero; opacity: 1;"  transform=" translate(-19.02, -23)" d="M 6 23 c 0 -3.3 1.3 -6.4 3.3 -8.7 c 2.4 -2.7 5.8 -4.3 9.7 -4.3 c 7.2 0 13 5.8 13 13 c 0 0.1 0.2 1.9 -0.2 3.4 C 30.7 31.5 25 31 25 31 s -3.1 5 -6 5 C 11.8 36 6 30.2 6 23 z" stroke-linecap="round" />
</g>
<g transform="matrix(4.17 0 0 4.17 179.24 154.38)" id="surface1"  >
<path style="stroke: none; stroke-width: 1; stroke-dasharray: none; stroke-linecap: butt; stroke-dashoffset: 0; stroke-linejoin: miter; stroke-miterlimit: 4; fill: rgb(255,183,77); fill-rule: nonzero; opacity: 1;"  transform=" translate(-19.02, -13.05)" d="M 17.4 16 c 0.2 0 0.4 0 0.6 0 c 0.5 0 1 0.1 1.5 0.1 c 0.6 -1.3 1.3 -3.5 1.1 -6 C 20.1 10.1 19.6 10 19 10 c -0.1 0 -0.2 0 -0.3 0 C 18.8 12.7 17.8 15.1 17.4 16 z" stroke-linecap="round" />
</g>
<g transform="matrix(4.17 0 0 4.17 163.93 156.46)" id="surface1"  >
<path style="stroke: none; stroke-width: 1; stroke-dasharray: none; stroke-linecap: butt; stroke-dashoffset: 0; stroke-linejoin: miter; stroke-miterlimit: 4; fill: rgb(255,183,77); fill-rule: nonzero; opacity: 1;"  transform=" translate(-15.34, -13.55)" d="M 14.5 16.8 c 0.7 -0.3 1.4 -0.6 2.1 -0.7 c 0.2 -1.7 0.1 -3.8 -0.7 -5.8 c -0.7 0.2 -1.3 0.4 -1.9 0.6 C 14.8 13 14.7 15.3 14.5 16.8 z" stroke-linecap="round" />
</g>
<g transform="matrix(4.17 0 0 4.17 195.42 158.75)" id="surface1"  >
<path style="stroke: none; stroke-width: 1; stroke-dasharray: none; stroke-linecap: butt; stroke-dashoffset: 0; stroke-linejoin: miter; stroke-miterlimit: 4; fill: rgb(255,183,77); fill-rule: nonzero; opacity: 1;"  transform=" translate(-22.9, -14.1)" d="M 22.6 17.5 c 0.8 -1.3 2 -3.5 2.4 -6 c -0.6 -0.3 -1.2 -0.6 -1.9 -0.8 c -0.3 2.4 -1.5 4.7 -2.3 5.8 C 21.5 16.8 22.1 17.1 22.6 17.5 z" stroke-linecap="round" />
</g>
<g transform="matrix(4.17 0 0 4.17 133.96 194.35)" id="surface1"  >
<path style="stroke: none; stroke-width: 1; stroke-dasharray: none; stroke-linecap: butt; stroke-dashoffset: 0; stroke-linejoin: miter; stroke-miterlimit: 4; fill: rgb(255,183,77); fill-rule: nonzero; opacity: 1;"  transform=" translate(-8.15, -22.65)" d="M 9.4 23.8 l 0.6 0.4 c 0 -0.1 0 -0.1 0 -0.2 c 0 -0.7 0.1 -1.4 0.3 -2 c -0.6 -0.3 -2.1 -1 -4.1 -0.9 C 6.1 21.7 6 22.4 6 23 c 0 0 0 0.1 0 0.1 C 8 22.9 9.4 23.8 9.4 23.8 z" stroke-linecap="round" />
</g>
<g transform="matrix(4.17 0 0 4.17 144.38 168.54)" id="surface1"  >
<path style="stroke: none; stroke-width: 1; stroke-dasharray: none; stroke-linecap: butt; stroke-dashoffset: 0; stroke-linejoin: miter; stroke-miterlimit: 4; fill: rgb(255,183,77); fill-rule: nonzero; opacity: 1;"  transform=" translate(-10.65, -16.45)" d="M 10.2 19.6 l 0.6 0.8 l 0.2 -0.1 c 0.7 -1.3 1.7 -2.4 3 -3.1 c -0.3 -1.5 -1.1 -3.2 -2.5 -4.7 c -0.5 0.4 -1 0.8 -1.5 1.3 C 11.3 15.2 12 17 12 18 v 0.7 l -0.2 -0.3 c -0.1 -0.1 -1.2 -1.8 -3.5 -2.8 c -0.4 0.6 -0.7 1.1 -1 1.7 C 9.1 18.1 10.1 19.5 10.2 19.6 z" stroke-linecap="round" />
</g>
<g transform="matrix(4.17 0 0 4.17 136.04 212.5)" id="surface1"  >
<path style="stroke: none; stroke-width: 1; stroke-dasharray: none; stroke-linecap: butt; stroke-dashoffset: 0; stroke-linejoin: miter; stroke-miterlimit: 4; fill: rgb(255,183,77); fill-rule: nonzero; opacity: 1;"  transform=" translate(-8.65, -27)" d="M 10.1 24.9 l -0.4 0.1 c -0.1 0 -1.7 0.6 -3 2 c 0.2 0.7 0.5 1.4 0.9 2.1 c 1.1 -1.6 2.7 -2.2 2.8 -2.2 l 0.2 -0.1 C 10.3 26.3 10.1 25.6 10.1 24.9 z" stroke-linecap="round" />
</g>
<g transform="matrix(4.17 0 0 4.17 218.96 183.75)" id="surface1"  >
<path style="stroke: none; stroke-width: 1; stroke-dasharray: none; stroke-linecap: butt; stroke-dashoffset: 0; stroke-linejoin: miter; stroke-miterlimit: 4; fill: rgb(255,183,77); fill-rule: nonzero; opacity: 1;"  transform=" translate(-28.55, -20.1)" d="M 25.7 22.1 l 0.7 1.9 c 1.5 -0.5 3.8 -2.1 5 -5 c -0.3 -1 -0.8 -2 -1.3 -2.8 C 29.6 20.6 25.9 22 25.7 22.1 z" stroke-linecap="round" />
</g>
<g transform="matrix(4.17 0 0 4.17 206.46 167.92)" id="surface1"  >
<path style="stroke: none; stroke-width: 1; stroke-dasharray: none; stroke-linecap: butt; stroke-dashoffset: 0; stroke-linejoin: miter; stroke-miterlimit: 4; fill: rgb(255,183,77); fill-rule: nonzero; opacity: 1;"  transform=" translate(-25.55, -16.3)" d="M 24.4 19.9 c 0.2 -0.1 3.1 -1.6 4.1 -5.6 c -0.5 -0.6 -1.1 -1.1 -1.7 -1.6 c -0.6 3.9 -3.2 5.4 -3.3 5.4 l -0.9 0.4 L 24.4 19.9 z" stroke-linecap="round" />
</g>
<g transform="matrix(4.17 0 0 4.17 219.14 205.21)" id="surface1"  >
<path style="stroke: none; stroke-width: 1; stroke-dasharray: none; stroke-linecap: butt; stroke-dashoffset: 0; stroke-linejoin: miter; stroke-miterlimit: 4; fill: rgb(255,183,77); fill-rule: nonzero; opacity: 1;"  transform=" translate(-28.59, -25.25)" d="M 26.2 29 c 1.5 -0.3 4 -1.3 5.8 -3.4 c 0.2 -1.3 0 -2.5 0 -2.6 c 0 -0.5 0 -1.1 -0.1 -1.6 C 30.8 26.1 26 27 25.8 27 l -0.7 2.1 L 26.2 29 z" stroke-linecap="round" />
</g>
<g transform="matrix(4.17 0 0 4.17 175.1 206.51)" id="surface1"  >
<path style="stroke: none; stroke-width: 1; stroke-dasharray: none; stroke-linecap: butt; stroke-dashoffset: 0; stroke-linejoin: miter; stroke-miterlimit: 4; fill: rgb(206,99,11); fill-rule: nonzero; opacity: 1;"  transform=" translate(-18.02, -25.56)" d="M 24.1 17.7 C 22.3 16 20 15 17.5 15 c -2.5 0 -4.8 1 -6.6 2.7 c -3 3 -3 7.8 0 10.8 c 2.5 2.5 6.5 2.5 8.9 0 c 1 -1 1.5 -2.3 1.5 -3.7 s -0.5 -2.7 -1.5 -3.7 c -0.8 -0.8 -1.9 -1.3 -3.1 -1.3 c -1.2 0 -2.3 0.5 -3.1 1.3 c -1.5 1.5 -1.5 3.8 0 5.3 c 1.2 1.2 3.3 1.2 4.5 0 c 0.4 -0.4 0.4 -1 0 -1.4 s -1 -0.4 -1.4 0 c -0.5 0.5 -1.2 0.5 -1.7 0 c -0.7 -0.7 -0.7 -1.8 0 -2.4 c 0.9 -0.9 2.5 -0.9 3.4 0 c 0.6 0.6 1 1.4 1 2.3 c 0 0.9 -0.3 1.7 -1 2.3 c -1.7 1.7 -4.4 1.7 -6.1 0 c -2.2 -2.2 -2.2 -5.8 0 -8 c 1.4 -1.4 3.2 -2.1 5.2 -2.1 c 2 0 3.8 0.8 5.2 2.1 c 3.7 3.7 3.7 9.6 0 13.3 c -1.7 1.7 -3.9 2.9 -6.2 3.3 c 1.1 0.2 3 0.5 4.9 0.2 c 1 -0.6 1.9 -1.3 2.7 -2.1 C 28.5 29.4 28.5 22.2 24.1 17.7 z" stroke-linecap="round" />
</g>
</svg>